<?xml version="1.0" encoding="UTF-8" standalone="no"?>
<!-- Created with Inkscape (http://www.inkscape.org/) -->

<svg
   xmlns:dc="http://purl.org/dc/elements/1.1/"
   xmlns:cc="http://creativecommons.org/ns#"
   xmlns:rdf="http://www.w3.org/1999/02/22-rdf-syntax-ns#"
   xmlns:svg="http://www.w3.org/2000/svg"
   xmlns="http://www.w3.org/2000/svg"
   xmlns:sodipodi="http://sodipodi.sourceforge.net/DTD/sodipodi-0.dtd"
   xmlns:inkscape="http://www.inkscape.org/namespaces/inkscape"
   version="1.1"
   id="svg2"
   xml:space="preserve"
   width="321.41333"
   height="233.46667"
   viewBox="0 0 321.41333 233.46667"
   sodipodi:docname="RM_Logotype_CMYK.svg"
   inkscape:version="0.92.3 (unknown)"><metadata
     id="metadata8"><rdf:RDF><cc:Work
         rdf:about=""><dc:format>image/svg+xml</dc:format><dc:type
           rdf:resource="http://purl.org/dc/dcmitype/StillImage" /><dc:title></dc:title></cc:Work></rdf:RDF></metadata><defs
     id="defs6" /><sodipodi:namedview
     pagecolor="#ffffff"
     bordercolor="#666666"
     borderopacity="1"
     objecttolerance="10"
     gridtolerance="10"
     guidetolerance="10"
     inkscape:pageopacity="0"
     inkscape:pageshadow="2"
     inkscape:window-width="1079"
     inkscape:window-height="480"
     id="namedview4"
     showgrid="false"
     inkscape:zoom="1.0108509"
     inkscape:cx="160.70667"
     inkscape:cy="116.73334"
     inkscape:window-x="130"
     inkscape:window-y="48"
     inkscape:window-maximized="0"
     inkscape:current-layer="g10" /><g
     id="g10"
     inkscape:groupmode="layer"
     inkscape:label="ink_ext_XXXXXX"
     transform="matrix(1.3333333,0,0,-1.3333333,0,233.46667)"><g
       id="g12"
       transform="scale(0.1)"><path
         d="m 2410.47,1049.34 c -2.09,43.99 -39.45,77.93 -83.48,75.83 -44,-2.1 -77.97,-39.45 -75.86,-83.46 2.11,-43.987 39.48,-77.929 83.48,-75.827 44.02,2.097 77.95,39.497 75.86,83.457"
         style="fill:#ed192e;fill-opacity:1;fill-rule:nonzero;stroke:none"
         id="path14"
         inkscape:connector-curvature="0" /><path
         d="m 2273.71,903.48 c -1.87,39.618 -35.53,70.2 -75.12,68.243 -39.59,-1.875 -70.15,-35.489 -68.26,-75.094 1.9,-39.57 35.51,-70.149 75.1,-68.281 39.61,1.914 70.18,35.562 68.28,75.132"
         style="fill:#e41935;fill-opacity:1;fill-rule:nonzero;stroke:none"
         id="path16"
         inkscape:connector-curvature="0" /><path
         d="m 2123.28,795.977 c -1.68,35.597 -31.93,63.101 -67.6,61.41 -35.64,-1.715 -63.1,-31.957 -61.42,-67.633 1.7,-35.598 31.95,-63.145 67.58,-61.445 35.64,1.761 63.14,31.953 61.44,67.668"
         style="fill:#da193b;fill-opacity:1;fill-rule:nonzero;stroke:none"
         id="path18"
         inkscape:connector-curvature="0" /><path
         d="m 1963.54,734.859 c -1.57,32.114 -28.77,56.848 -60.86,55.305 -32.07,-1.531 -56.84,-28.769 -55.3,-60.824 1.53,-32.031 28.77,-56.84 60.86,-55.309 32.07,1.547 56.8,28.789 55.3,60.828"
         style="fill:#d11a41;fill-opacity:1;fill-rule:nonzero;stroke:none"
         id="path20"
         inkscape:connector-curvature="0" /><path
         d="m 1805.41,724.602 c -1.39,28.914 -25.9,51.175 -54.77,49.793 -28.86,-1.387 -51.15,-25.915 -49.76,-54.747 1.39,-28.828 25.9,-51.199 54.76,-49.769 28.87,1.383 51.14,25.902 49.77,54.723"
         style="fill:#c81a47;fill-opacity:1;fill-rule:nonzero;stroke:none"
         id="path22"
         inkscape:connector-curvature="0" /><path
         d="m 1664.94,766.309 c -1.25,25.957 -23.32,46.004 -49.3,44.812 -25.97,-1.277 -46.05,-23.308 -44.8,-49.285 1.23,-26.008 23.3,-46.098 49.26,-44.856 26.03,1.27 46.07,23.34 44.84,49.329"
         style="fill:#be1b4c;fill-opacity:1;fill-rule:nonzero;stroke:none"
         id="path24"
         inkscape:connector-curvature="0" /><path
         d="m 1551.54,840.711 c -1.13,23.391 -20.93,41.406 -44.31,40.32 -23.42,-1.148 -41.47,-20.972 -40.32,-44.363 1.1,-23.391 20.96,-41.406 44.34,-40.273 23.36,1.101 41.43,20.937 40.29,44.316"
         style="fill:#b51b52;fill-opacity:1;fill-rule:nonzero;stroke:none"
         id="path26"
         inkscape:connector-curvature="0" /><path
         d="m 1462.81,930.098 c -1.01,21.007 -18.86,37.277 -39.96,36.273 -21.01,-1.012 -37.26,-18.891 -36.23,-39.914 1,-21.062 18.85,-37.285 39.9,-36.312 21.06,1.054 37.29,18.925 36.29,39.953"
         style="fill:#ab1b5d;fill-opacity:1;fill-rule:nonzero;stroke:none"
         id="path28"
         inkscape:connector-curvature="0" /><path
         d="m 1392.62,1024.14 c -0.88,18.94 -16.99,33.54 -35.92,32.64 -18.95,-0.9 -33.57,-17.01 -32.68,-35.93 0.9,-18.93 17,-33.577 35.9,-32.674 19.01,0.894 33.62,17.014 32.7,35.964"
         style="fill:#a21b67;fill-opacity:1;fill-rule:nonzero;stroke:none"
         id="path30"
         inkscape:connector-curvature="0" /><path
         d="m 1337.32,1118.46 c -0.84,17.06 -15.27,30.17 -32.32,29.4 -17.07,-0.84 -30.21,-15.34 -29.43,-32.35 0.86,-17.06 15.31,-30.2 32.38,-29.41 17.05,0.81 30.19,15.31 29.37,32.36"
         style="fill:#981b72;fill-opacity:1;fill-rule:nonzero;stroke:none"
         id="path32"
         inkscape:connector-curvature="0" /><path
         d="m 1294.79,1210.35 c 0.01,15.59 -12.6,28.15 -28.09,28.15 -15.57,0.03 -28.15,-12.56 -28.15,-28.07 0,-15.52 12.56,-28.16 28.11,-28.16 15.53,0 28.13,12.57 28.13,28.08"
         style="fill:#8e1c7c;fill-opacity:1;fill-rule:nonzero;stroke:none"
         id="path34"
         inkscape:connector-curvature="0" /><path
         d="m 0,1196.04 c -0.0390625,-49.43 39.9688,-89.56 89.4727,-89.56 49.4723,-0.07 89.6483,40.01 89.6483,89.49 0.027,49.41 -40.058,89.59 -89.5312,89.63 C 40.1367,1285.64 0,1245.54 0,1196.04"
         style="fill:#079ae1;fill-opacity:1;fill-rule:nonzero;stroke:none"
         id="path36"
         inkscape:connector-curvature="0" /><path
         d="m 122.871,1371.52 c 2.102,-43.99 39.453,-78.02 83.457,-75.88 43.985,2.1 77.969,39.49 75.879,83.45 -2.09,44 -39.504,77.95 -83.484,75.84 -43.996,-2.09 -77.942,-39.46 -75.852,-83.41"
         style="fill:#0b8ed8;fill-opacity:1;fill-rule:nonzero;stroke:none"
         id="path38"
         inkscape:connector-curvature="0" /><path
         d="m 259.609,1517.34 c 1.875,-39.62 35.528,-70.16 75.137,-68.25 39.57,1.87 70.176,35.49 68.234,75.1 -1.867,39.6 -35.48,70.15 -75.089,68.24 -39.571,-1.88 -70.157,-35.54 -68.282,-75.09"
         style="fill:#1082ce;fill-opacity:1;fill-rule:nonzero;stroke:none"
         id="path40"
         inkscape:connector-curvature="0" /><path
         d="m 410.02,1624.88 c 1.699,-35.63 31.972,-63.11 67.617,-61.41 35.625,1.64 63.086,31.96 61.445,67.55 -1.719,35.64 -32.012,63.17 -67.598,61.46 -35.632,-1.69 -63.144,-31.97 -61.464,-67.6"
         style="fill:#1575c5;fill-opacity:1;fill-rule:nonzero;stroke:none"
         id="path42"
         inkscape:connector-curvature="0" /><path
         d="m 569.813,1685.91 c 1.527,-32.03 28.742,-56.84 60.812,-55.3 32.129,1.54 56.848,28.78 55.313,60.85 -1.543,32.09 -28.743,56.85 -60.84,55.31 -32.09,-1.53 -56.785,-28.78 -55.285,-60.86"
         style="fill:#2469bc;fill-opacity:1;fill-rule:nonzero;stroke:none"
         id="path44"
         inkscape:connector-curvature="0" /><path
         d="m 727.91,1696.19 c 1.387,-28.86 25.899,-51.16 54.785,-49.81 28.86,1.4 51.153,25.91 49.727,54.79 -1.348,28.85 -25.859,51.15 -54.727,49.73 -28.879,-1.35 -51.14,-25.85 -49.785,-54.71"
         style="fill:#335cb3;fill-opacity:1;fill-rule:nonzero;stroke:none"
         id="path46"
         inkscape:connector-curvature="0" /><path
         d="m 868.398,1654.52 c 1.231,-25.97 23.29,-46.05 49.278,-44.78 25.976,1.28 46.047,23.31 44.804,49.27 -1.23,26.01 -23.3,46.02 -49.265,44.79 -26.008,-1.25 -46.059,-23.31 -44.817,-49.28"
         style="fill:#424ea9;fill-opacity:1;fill-rule:nonzero;stroke:none"
         id="path48"
         inkscape:connector-curvature="0" /><path
         d="m 981.785,1580.09 c 1.125,-23.34 20.945,-41.44 44.325,-40.32 23.39,1.13 41.45,21 40.34,44.34 -1.14,23.38 -21,41.48 -44.38,40.36 -23.34,-1.17 -41.406,-21.03 -40.285,-44.38"
         style="fill:#4f3e9f;fill-opacity:1;fill-rule:nonzero;stroke:none"
         id="path50"
         inkscape:connector-curvature="0" /><path
         d="m 1070.53,1490.73 c 1,-21.06 18.88,-37.29 39.94,-36.28 21.02,0.97 37.28,18.85 36.28,39.91 -1.01,21.06 -18.9,37.33 -39.94,36.27 -21.07,-0.97 -37.3,-18.86 -36.28,-39.9"
         style="fill:#5c2d95;fill-opacity:1;fill-rule:nonzero;stroke:none"
         id="path52"
         inkscape:connector-curvature="0" /><path
         d="m 1140.7,1396.71 c 0.9,-18.97 17,-33.58 35.9,-32.68 18.97,0.9 33.59,17.02 32.68,35.97 -0.88,18.92 -16.98,33.51 -35.9,32.6 -18.96,-0.9 -33.59,-16.97 -32.68,-35.89"
         style="fill:#672290;fill-opacity:1;fill-rule:nonzero;stroke:none"
         id="path54"
         inkscape:connector-curvature="0" /><path
         d="m 1195.98,1302.39 c 0.83,-17.05 15.29,-30.24 32.34,-29.42 17.05,0.83 30.2,15.33 29.38,32.33 -0.82,17.06 -15.28,30.21 -32.35,29.42 -17.03,-0.85 -30.19,-15.28 -29.37,-32.33"
         style="fill:#7b1f86;fill-opacity:1;fill-rule:nonzero;stroke:none"
         id="path56"
         inkscape:connector-curvature="0" /><path
         d="m 314.18,342.801 c -11.028,14.078 -23.77,18.929 -54.258,18.929 H 187.313 L 160.43,243.98 h 90.312 c 2.442,0 13.469,0.598 23.196,2.461 18.933,4.231 31.089,14.02 40.242,30.481 8.586,15.848 9.179,28.68 9.179,36.039 0,4.848 0,18.269 -9.179,29.84 z m 97.617,-99.43 C 404.441,230.59 394.695,218.359 383.125,209.18 369.102,198.852 354.473,192.148 320.898,180.582 L 391.055,9.73828 H 273.938 L 217.207,164.121 H 142.109 L 106.797,9.73828 H 0 L 97.5781,440.41 H 287.363 c 9.141,0 17.664,0 26.817,-0.609 12.187,-1.192 40.293,-3.653 68.3,-23.223 18.907,-13.348 47.637,-42.039 47.637,-101.199 0,-12.859 -1.855,-42.699 -18.32,-72.008"
         style="fill:#393536;fill-opacity:1;fill-rule:nonzero;stroke:none"
         id="path58"
         inkscape:connector-curvature="0" /><path
         d="m 995.137,223.852 c -9.082,12.82 -11.524,16.468 -17.598,21.988 -15.273,14.051 -39.082,20.14 -59.238,20.14 -26.25,0 -40.215,-11.019 -40.215,-24.429 0,-17.09 21.902,-22.571 49.375,-30.473 13.379,-3.687 26.25,-7.316 39.062,-12.226 31.7,-11.563 62.827,-26.821 73.827,-59.18 4.25,-11.57 4.25,-24.363 4.25,-28.082 0,-37.1916 -24.39,-62.8009 -32.96,-70.7189 C 991.516,21.9688 952.488,0 888.418,0 865.813,0 801.211,1.21094 754.844,54.9102 c -6.68,7.8984 -10.371,12.2382 -19.531,28.6406 l 78.671,39.0192 c 5.528,-9.718 8.594,-14.601 11.582,-18.281 9.18,-10.9609 31.145,-28.707 69.602,-28.707 4.82,0 17.051,0.6797 30.457,4.918 7.363,2.4688 12.832,5.5117 17.078,11.5898 1.242,1.8711 3.664,6.0899 3.664,11.6012 0,2.438 -0.586,6.731 -3.664,10.989 -7.351,10.41 -20.723,14.031 -42.715,20.769 -62.234,19.5 -89.05,28.672 -107.945,59.121 -3.625,6.121 -12.199,22 -12.199,41.489 0,9.152 1.836,26.25 14.011,45.152 17.083,26.859 54.915,54.301 125.688,54.301 72.586,0 108.587,-26.832 129.377,-50.614 5.44,-6.726 9.7,-12.218 17.64,-26.226 l -71.423,-34.82"
         style="fill:#393536;fill-opacity:1;fill-rule:nonzero;stroke:none"
         id="path60"
         inkscape:connector-curvature="0" /><path
         d="M 1521.04,9.73828 H 1421 L 1497.85,342.801 1336.82,9.73828 h -90.26 L 1234.34,347.699 1160.53,9.73828 H 1059.84 L 1156.31,440.41 h 159.14 l 7.28,-282.398 133.72,282.398 h 161.6 L 1521.04,9.73828"
         style="fill:#393536;fill-opacity:1;fill-rule:nonzero;stroke:none"
         id="path62"
         inkscape:connector-curvature="0" /><path
         d="m 2155.37,224.461 c -7.91,23.168 -28.05,37.23 -51.85,36 -16.49,-0.57 -28.7,-8.531 -32.97,-11.57 -34.77,-23.2 -49.98,-73.832 -49.98,-113.442 0,-21.41 4.88,-33.617 10.35,-42.1209 9.74,-15.289 23.79,-20.7695 41.48,-20.7695 15.22,0 40.8,4.9102 61.64,35.9414 15.76,23.84 24.98,62.289 24.98,89.77 0,9.761 -0.58,17.039 -3.65,26.191 z M 2212.15,9.73828 h -94.02 l 4.31,21.98052 C 2117.52,28.0703 2112.7,25 2107.79,21.3281 2096.21,14.0195 2073.57,1.21094 2038.18,1.21094 2002.21,1.21094 1981.5,15.8516 1970.53,25 1950.41,41.4492 1926,72 1926,133.57 c 0,20.75 3.65,73.25 35.39,123.25 42.69,67.102 101.87,77.45 131.72,77.45 11.01,0 42.12,-1.2 68.32,-20.75 10.39,-7.918 17.73,-18.258 20.19,-21.942 l 33.52,148.832 94.55,-0.012 -97.54,-430.65972"
         style="fill:#393536;fill-opacity:1;fill-rule:nonzero;stroke:none"
         id="path64"
         inkscape:connector-curvature="0" /><path
         d="m 551.633,251.34 c 7.383,6.058 21.394,17.672 46.414,17.672 35.359,0 51.808,-23.172 56.699,-35.981 3.027,-9.179 3.027,-21.953 3.027,-23.851 H 523.047 c 11.523,25.05 17.637,32.371 28.586,42.16 z M 739.531,150.059 c 1.231,13.382 2.481,27.429 2.481,41.48 0,6.731 0,28.082 -6.133,48.781 -4.285,16.5 -12.207,31.16 -23.145,45.149 -37.851,46.992 -95.781,49.402 -115.261,49.402 -15.91,0 -56.789,-1.801 -93.996,-25.043 -39.649,-24.93 -68.887,-69.508 -79.914,-115.258 -4.879,-19.511 -4.879,-35.32 -4.879,-42.691 0,-60.9884 29.285,-115.8673 85.418,-139.0899 28,-11.57816 56.738,-12.168006 67.675,-12.168006 77.52,0 115.918,35.988306 134.844,60.347706 5.383,7.2109 10.457,14.7421 15.41,22.6015 L 648.879,119.879 C 644.016,112 639.434,104.23 633.406,97.6406 618.789,82.2813 596.824,73.2109 574.258,73.2109 c -6.738,0 -20.164,0 -35.352,8.5196 -33.601,18.3395 -28.73,59.8005 -28.093,68.3285 h 228.718"
         style="fill:#393536;fill-opacity:1;fill-rule:nonzero;stroke:none"
         id="path66"
         inkscape:connector-curvature="0" /><path
         d="m 722.07,83.5508 v 0.0976 c -0.019,-0.039 -0.019,-0.0586 -0.039,-0.0781 l 0.039,-0.0195"
         style="fill:#393536;fill-opacity:1;fill-rule:nonzero;stroke:none"
         id="path68"
         inkscape:connector-curvature="0" /><path
         d="m 1716.62,251.34 c 7.38,6.058 21.43,17.672 46.41,17.672 35.37,0 51.81,-23.172 56.72,-35.981 3.02,-9.179 3.02,-21.953 3.02,-23.851 h -134.74 c 11.52,25.05 17.63,32.371 28.59,42.16 z m 187.91,-101.281 c 1.21,13.382 2.46,27.429 2.46,41.48 0,6.731 0,28.082 -6.11,48.781 -4.3,16.5 -12.19,31.16 -23.17,45.149 -37.83,46.992 -95.76,49.402 -115.23,49.402 -15.94,0 -56.82,-1.801 -94,-25.043 -39.65,-24.93 -68.89,-69.508 -79.93,-115.258 -4.88,-19.511 -4.88,-35.32 -4.88,-42.691 0,-60.9884 29.32,-115.8673 85.43,-139.0899 27.99,-11.57816 56.72,-12.168006 67.66,-12.168006 77.52,0 115.94,35.988306 134.86,60.347706 5.39,7.2109 10.45,14.7421 15.41,22.6015 l -73.18,36.3087 C 1809,112 1804.43,104.23 1798.4,97.6406 c -14.61,-15.3593 -36.58,-24.4297 -59.14,-24.4297 -6.74,0 -20.18,0 -35.33,8.5196 -33.64,18.3395 -28.77,59.8005 -28.13,68.3285 h 228.73"
         style="fill:#393536;fill-opacity:1;fill-rule:nonzero;stroke:none"
         id="path70"
         inkscape:connector-curvature="0" /><path
         d="m 1887.07,83.5508 v 0.0976 c -0.02,-0.039 -0.02,-0.0586 -0.04,-0.0781 l 0.04,-0.0195"
         style="fill:#393536;fill-opacity:1;fill-rule:nonzero;stroke:none"
         id="path72"
         inkscape:connector-curvature="0" /></g></g></svg>