<?xml version="1.0" encoding="UTF-8" standalone="no"?>
<!-- Created with Inkscape (http://www.inkscape.org/) -->

<svg
   xmlns:dc="http://purl.org/dc/elements/1.1/"
   xmlns:cc="http://creativecommons.org/ns#"
   xmlns:rdf="http://www.w3.org/1999/02/22-rdf-syntax-ns#"
   xmlns:svg="http://www.w3.org/2000/svg"
   xmlns="http://www.w3.org/2000/svg"
   xmlns:sodipodi="http://sodipodi.sourceforge.net/DTD/sodipodi-0.dtd"
   xmlns:inkscape="http://www.inkscape.org/namespaces/inkscape"
   version="1.1"
   id="svg2"
   xml:space="preserve"
   width="944.88"
   height="173.25333"
   viewBox="0 0 944.88 173.25333"
   sodipodi:docname="GMC_Wordmark_2008_RGB.svg"
   inkscape:version="0.92.3 (unknown)"><metadata
     id="metadata8"><rdf:RDF><cc:Work
         rdf:about=""><dc:format>image/svg+xml</dc:format><dc:type
           rdf:resource="http://purl.org/dc/dcmitype/StillImage" /><dc:title></dc:title></cc:Work></rdf:RDF></metadata><defs
     id="defs6" /><sodipodi:namedview
     pagecolor="#ffffff"
     bordercolor="#666666"
     borderopacity="1"
     objecttolerance="10"
     gridtolerance="10"
     guidetolerance="10"
     inkscape:pageopacity="0"
     inkscape:pageshadow="2"
     inkscape:window-width="1079"
     inkscape:window-height="480"
     id="namedview4"
     showgrid="false"
     inkscape:zoom="0.93239353"
     inkscape:cx="472.44"
     inkscape:cy="86.626663"
     inkscape:window-x="130"
     inkscape:window-y="48"
     inkscape:window-maximized="0"
     inkscape:current-layer="g10" /><g
     id="g10"
     inkscape:groupmode="layer"
     inkscape:label="ink_ext_XXXXXX"
     transform="matrix(1.3333333,0,0,-1.3333333,0,173.25333)"><g
       id="g12"
       transform="scale(0.1)"><path
         d="m 719.605,819.32 c 0,-161.781 -78.218,-271.375 -276.367,-271.375 H 380.66 v 515.335 c 22.16,1.29 43.024,1.29 62.578,1.29 187.723,0 276.367,-88.695 276.367,-245.25 z M 516.246,323.551 c 354.582,0 578.814,182.644 578.814,500.976 0,349.643 -239.869,474.883 -630.962,474.883 -151.223,0 -333.731,-10.42 -464.098,-26.09 L 0,26.0898 H 380.66 V 323.551 H 516.246 Z M 5616.11,819.32 c 0,-161.781 -78.22,-271.375 -276.37,-271.375 h -62.57 v 515.335 c 22.15,1.29 43.02,1.29 62.57,1.29 187.71,0 276.37,-88.695 276.37,-245.25 z M 5412.73,323.551 c 354.59,0 578.83,182.644 578.83,500.976 0,349.643 -239.88,474.883 -630.97,474.883 -151.21,0 -333.72,-10.42 -464.09,-26.09 V 26.0898 h 380.67 V 323.551 h 135.56 z m 1074.21,631.445 c 0,67.844 67.8,99.154 177.29,99.154 119.94,0 250.3,-26.09 338.94,-62.63 l -31.28,271.37 c -99.08,20.88 -187.72,36.52 -349.38,36.52 -307.66,0 -516.23,-121.31 -516.23,-375.719 0,-438.363 594.45,-349.652 594.45,-553.175 0,-78.278 -57.35,-120.028 -198.14,-120.028 -125.16,0 -318.1,41.75 -432.81,99.157 L 6111.49,62.6289 C 6226.21,20.8711 6382.65,0 6507.79,0 c 318.1,0 578.82,104.359 578.82,417.484 0,417.485 -599.67,339.207 -599.67,537.512 z M 4609.69,1273.32 H 4229.02 V 26.0898 h 380.67 V 1273.32 Z m -1543.52,0 H 2685.52 V 26.0898 h 380.65 V 1273.32 Z m 662.26,-996.73 v 996.73 H 3347.76 V 26.0898 h 688.32 l 57.37,250.5002 h -365.02 z m -1324.5,996.73 H 2023.26 V 777.555 H 1626.95 V 1273.32 H 1246.28 V 26.0898 h 380.67 V 516.629 h 396.31 V 26.0898 h 380.67 v 1247.2302 0"
         style="fill:#0b5ed7;fill-opacity:1;fill-rule:nonzero;stroke:none"
         id="path14"
         inkscape:connector-curvature="0" /></g></g></svg>